PathFileType	4	(X/Y/Z)	Patient4_TMGait_0pt2_01_left_08.trc.trc
DataRate	CameraRate	NumFrames	NumMarkers	Units	OrigDataRate	OrigDataStartFrame	OrigNumFrames
40.345821325648	40.345821325648	4	33	mm	40.345821325648	89	       141
Frame#	Time	Sacral			L.Shoulder			Chest			R.Shoulder			Neck			R.ASIS			L.ASIS			R.Thigh.Superior			R.Thigh.Lateral			R.Thigh.Inferior			R.Patella			L.Thigh.Superior			L.Thigh.Lateral			L.Thigh.Inferior			L.Patella			L.Shank.Superior			L.Shank.Lateral			L.Shank.Inferior			R.Shank.Superior			R.Shank.Lateral			R.Shank.Inferior			R.Heel			R.Midfoot.Superior			R.Midfoot.Lateral			R.Toe			L.Heel			L.Midfoot.Lateral			L.Midfoot.Superior			L.Toe			L.Elbow			L.Wrist			R.Elbow			R.Wrist			
		X1	Y1	Z1	X2	Y2	Z2	X3	Y3	Z3	X4	Y4	Z4	X5	Y5	Z5	X6	Y6	Z6	X7	Y7	Z7	X8	Y8	Z8	X9	Y9	Z9	X10	Y10	Z10	X11	Y11	Z11	X12	Y12	Z12	X13	Y13	Z13	X14	Y14	Z14	X15	Y15	Z15	X16	Y16	Z16	X17	Y17	Z17	X18	Y18	Z18	X19	Y19	Z19	X20	Y20	Z20	X21	Y21	Z21	X22	Y22	Z22	X23	Y23	Z23	X24	Y24	Z24	X25	Y25	Z25	X26	Y26	Z26	X27	Y27	Z27	X28	Y28	Z28	X29	Y29	Z29	X30	Y30	Z30	X31	Y31	Z31	X32	Y32	Z32	X33	Y33	Z33	

89	19.541142857143	828.083402923839	1004.866050221091	520.330471240438	1011.041816790112	1436.258397952498	358.651996296195	1094.447472524818	1373.055568271224	531.525257179887	988.230118779092	1443.070587557694	693.929668139400	970.878395774963	1498.124518966690	514.261854259865	1049.492625778726	946.341828554607	658.640738460499	1056.647425828710	964.351353862751	383.683182536621	1096.129105133511	746.175314996445	620.577464671007	1018.511804357091	632.429056898709	677.956407240090	1095.531278778138	584.248106362313	595.480680364449	1097.610216841509	497.467583142576	599.362493269789	1058.794555275091	732.388328799675	402.689412830704	948.101649647336	637.359583146231	327.098518858213	1008.091304883241	542.469833961665	388.330684112880	992.239195145258	473.269240849330	392.238479718020	951.848132381140	410.613113141412	377.340154703717	841.775819768194	320.739506546093	317.439040245041	869.282198641660	195.068466816330	377.260836664607	1072.669289274592	407.152760879365	606.011910519346	1006.165362553916	301.517810103595	671.190643850756	1046.775386620433	208.100487213252	603.706498585604	913.605705925952	42.730313965122	581.555637163493	1086.798540318664	98.043861971260	606.390299689048	1002.187519065173	36.956926764716	650.327491716559	1208.432506688262	48.953452441660	624.219756098433	715.957798190468	54.993891824420	404.062365270887	791.564684859964	46.854195849962	326.047277820229	879.505786377436	99.838226388141	355.339476619762	1002.184789872552	38.091705273088	326.768852194027	1134.382519751238	1129.358950973695	206.098550047224	1392.726057128426	1127.978704589295	222.590508807131	879.659138711043	1108.494462242828	791.006985781037	896.825231548209	847.262688995350	799.874375312931	
90	19.565928571429	828.445563042017	1005.175154808495	526.792514863963	1009.519427192451	1435.900769219775	362.137083377133	1094.974772999612	1373.326057472681	534.283860545865	990.501301969551	1443.707829907497	697.698330890258	971.237324653135	1498.331932608927	517.910657866420	1050.904980443003	946.448843614039	663.203111358557	1055.802058434294	964.352979717370	388.091337405474	1095.647141766470	745.663553169221	624.483628800158	1017.222418577547	632.114471635796	681.651535460931	1093.501191446955	583.752878878247	598.814967946742	1094.741281239713	496.926522111382	602.181311882746	1059.027446528729	732.656789730721	406.440056768073	948.411870214847	637.583587763399	331.058945401604	1009.582774233788	542.323221582720	391.109200287972	994.070595398582	472.375674116035	394.393778570454	952.004763214762	410.372830383859	379.441785423182	840.132907743365	322.500542623148	319.571440827677	866.634663939587	195.916113477593	378.123854352408	1069.507218307653	406.729856113045	608.218492308679	1002.650815163639	300.903242142350	672.626657900794	1042.701352041100	207.796076195413	604.576963509325	908.891186652770	42.662941725193	581.598225336293	1082.123103872672	97.991674252830	606.560760435616	997.492157943203	36.907780402316	650.353290065358	1203.766533822082	48.700240405435	624.283773125732	711.522419055647	57.416631192537	404.222157026451	787.036061059149	48.345946698508	326.175286700949	875.664413443079	100.354640056102	355.451595570324	997.606611311732	37.787742925793	326.664693153720	1124.753474463357	1124.233117729622	210.611149449303	1383.018563948000	1110.929076920021	225.658107082512	887.143409309745	1107.347466500125	796.634619308860	908.285776934813	846.562595918197	806.427663016148	
91	19.590714285714	828.746569333294	1005.359217977073	533.049883400687	1007.709060729364	1435.524192805132	365.495034737033	1095.257564560321	1373.564358106342	536.864164142585	992.543079063194	1444.224100416860	701.306191636448	971.333428489938	1498.464109442024	521.432148174842	1052.231749662987	946.450332589729	667.503742080982	1054.867990026543	964.373984902694	392.265307450767	1095.217595463936	745.120564404867	628.134482752688	1016.085645378335	631.728760633750	685.148461525127	1091.641674854624	583.220943825154	601.953173939316	1092.072891176246	496.322601260404	604.862217430674	1059.411029496921	732.890060858838	410.061255318534	949.028247788923	637.600246810147	334.925729203267	1011.466276340339	542.065259199395	393.886404299463	996.354758217976	471.302956235887	396.475348027968	952.505377754294	409.994620400638	381.530283791342	838.789841034975	324.227326381590	321.763464073941	864.181510182989	196.767559159521	379.056766597213	1066.486819338168	406.247159390402	610.299076684545	999.217174538876	300.289399321049	673.943144838338	1038.673412300870	207.475689490225	605.385819321469	904.089622470684	42.647037617217	581.626258658817	1077.390805471065	97.935298244719	606.697642858734	992.707586818176	36.891581009712	650.362786479220	1199.016116976165	48.399908527071	624.341994565925	707.167064449798	59.956754210490	404.528540289293	782.529725458475	49.926692231954	326.398934011386	871.925139233704	100.922054018165	355.618390623374	993.068463687073	37.537151843310	326.546360468373	1113.911517783270	1118.885211913315	215.292724552677	1371.438990699562	1092.252744123182	228.492816430083	895.229802961827	1105.852716160730	801.978179525848	921.106593999887	845.621881409352	812.495843630007	
92	19.615500000000	828.966703833212	1005.398597300181	539.119912341555	1005.627292253161	1435.123112294894	368.734339733486	1095.307530939704	1373.729024878536	539.259671955239	994.390178440377	1444.578502447597	704.754228873366	971.179930678427	1498.496886863023	524.837640340359	1053.478893981690	946.342224017598	671.520516022362	1053.795287446194	964.380707669032	396.189494823959	1094.908384388348	744.559650310003	631.493835221931	1015.213512974177	631.262239537635	688.418338825183	1090.059823157007	582.652515539289	604.842454035633	1089.750895723013	495.633402228979	607.354110416006	1060.007260853361	733.103955095712	413.559971166803	950.084770348482	637.359928739422	338.702653325587	1013.930990633744	541.694548037025	396.688226405082	999.294143687162	470.028494347629	398.493169951138	953.549646283115	409.447491316061	383.629057684547	837.918219895775	325.950495041279	324.064895708213	862.037508480845	197.654921260953	380.099432458925	1063.707537805700	405.684005834737	612.216521463153	995.947406948806	299.675786415102	675.140791326246	1034.730125314319	207.126516858067	606.117974380705	899.203026032306	42.668339084757	581.645779896503	1072.602177106795	97.873688170588	606.803417814462	987.835355739803	36.897840366097	650.364404817094	1194.185846150946	48.069451688199	624.396357724666	702.976884752740	62.765650049763	405.088419591902	778.078674294663	51.716274434843	326.799242751143	868.342816419003	101.584177962719	355.881759771138	988.548618697136	37.324904058219	326.416847067456	1101.911287712230	1113.417447407632	220.186036425526	1357.808280754968	1072.118482681243	231.151210924265	903.969989427563	1104.028944845709	807.073269769247	935.322086729723	844.488897300303	818.099700985664	
